<?xml version="1.0" encoding="utf-8"?>
<!-- Generator: Adobe Illustrator 27.5.0, SVG Export Plug-In . SVG Version: 6.00 Build 0)  -->
<svg version="1.1" id="Ñëîé_1" xmlns="http://www.w3.org/2000/svg" xmlns:xlink="http://www.w3.org/1999/xlink" x="0px" y="0px"
	 viewBox="0 0 2200 1200" style="enable-background:new 0 0 2200 1200;" xml:space="preserve">
<path style="fill:none;stroke:#000000;stroke-width:6;stroke-linecap:round;stroke-linejoin:round;stroke-miterlimit:10;" d="
	M143.293,1075.359c18,22-24.279,43.875-36.598,25.953c-36.402-52.953,82.027-97.247,187.598-42.953c35,18,67.663,31.944,131,39
	c94.812,10.563,159-33,142-52c-26.308-29.403-47,15-19,34c32.991,22.387,182.675,2.803,236-18c182-71,262,35,216,37
	c-11.975,0.521-15.719-6.406-16.837-15.793c-5.567-46.709,97.207-38.257,166.837-14.207
	c71.297,24.625,201.132,28.412,268.823,32.433c89.977,5.345,139.297-11.057,140.31,3.118c0.891,12.472-141.99,18.151-108.684-8.018
	c12.472-9.799-11.462-5.037-27.617-31.18c-8.13-13.156-1.925-36.227-9.799-46.325c-5.076-6.508-10.562,1.549-11.581-6.236
	c-4.533-34.621,100.364-16.958,146.792-19.429c13.769-0.733,51.107-7.929,57.214,9.629c7.127,20.49-3.683,5.392-9.354,17.372
	c-4.366,9.224-3.329,34.015-7.572,45.879c-3.395,9.492-15.495,20.254-25.835,20.49c11.581-48.997,118.484-13.363,130.956-32.071
	c6.593-9.889-22.502-86.492-36.525-102.449c-25.835-29.398-116.702-19.599-122.938-10.691
	c-15.632,22.329,118.746,6.443,124.72,3.564c-14.399-24.243-42.761-96.212-48.106-127.392c-1.602-9.344,10.979,2.854,8.909-9.799
	c-2.398-14.658-67.705-11.581-68.596-2.673c-1.517,15.173,47.129-1.305,47.215,7.127c0.087,8.55-32.502-6.788-34.743,9.799
	c-8.909,65.923-76.881,144-61.469,155.009c12.472,8.909-3.883-49.791-16.887-75.763c-18.388-36.724-0.93-132.697-7.166-154.078
	c-1.392-4.773-13.924-0.94-16.926-2.673c-3.064-1.768-0.891-9.799-1.782-16.035c19.465-0.838,32.591,0.494,52.115-0.445
	c-9.433-3.38-25.367-1.152-35.189-3.118c0.345-5.652,0.705-13.822,0-19.599c-16.415-1.624-13.583-17.159,0-16.926
	c19.607,0.336,62.36-4.454,62.36,6.236c0,15.853-7.07-3.755-8.018,14.254c-1.166,22.146-0.204,121.494-0.891,137.192
	c-3.286,75.109-30.609,66.428-40.089,45.434c-5.994-13.275,0-144.319,0-144.319s80.623,10.245,76.168-18.263
	c4.634,22.531-39.049-4.801-15.59-6.681c105.566-8.463,82.404,9.354,75.723,106.012c24.053-53.451,64.142-115.811,65.923-145.21
	c-6.926-5.439-16.926,0.891-16.926-16.926c0-7.252,24.521-5.786,48.106-6.236c23.813-0.454,46.324-2.734,46.324,9.799
	c0,16.926-52.987,12.486-66.814,12.472c13.363,0.891,32.788-5.268,50.779,0.891c12.472,47.215,13.743,50.588,32.071,89.977
	c-12.97,9.494-143.206,16.778-119.375,0.891c26.726-17.817,85.606-12.209,118.484,6.236
	c34.533,19.373,109.813,180.964,106.376,202.74c-14.442,91.501-268.512-11.206-73.414-13.879
	c40.448-0.554,75.216,16.451,52.176-103.467c-0.04-0.209-0.133-0.403-0.218-0.597c-3.045-6.94,41.321-36.65,50.49-48.272
	c76.614-97.103,82.665-266.762-38.411-331.405c11.265-16.394,22.887-36.263,30.862-54.673c-8.867-2.839-13.358-9.877-22.74-12.135
	c19.363-55.669,78.828-83.479,11.581-92.649c-7.273,6.244-43.986,61.177-48.997,69.487c-0.857-3.754-22.016-6.449-23.162-9.799
	c-15.145,24.053-85.522,127.392-111.357,163.918c21.77,11.978,49.801,23.693,67.265,43.099
	c-18.058-1.537-31.624-17.611-48.355-23.223c-7.328,17.54-13.564,25.558-21.582,43.375c8.845,1.776,33.617,20.606,40.979,20.49
	c7.127-13.363,21.446-30.93,31.521-40.197c17.348,11.054,20.122,7.72,31.729-9.691c21.38-32.071,30.289-42.761,42.761-65.923
	c110.92,93.892,32.962,196.879-41.87,285.074c-19.827,23.368-45.434,32.071-170.153,31.18c-19.279-0.138,10.979,60.16,20.49,87.304
	c42.761,122.047,121.235,124.098,173.717,115.811c50.779-8.018,52.93-10.893,66.814-50.779
	c7.351-22.139,32.636-42.831,50.779-57.906c25.208,51.332,3.676,93.314-35.634,88.195c44.543-40.979,104.815,4.91,121.168,30.792
	c-42.368,17.23-79.339,16.418-123.841,3.06c17.372-12.026,69.862,22.856,49.832,59.558c-31.569-14.57-55.127-10.224-67.889-20.444
	c-28.184-22.569-10.882-55.876,34.441-61.044c96.755-11.032,173.124-70.279,107.124-234.279c-11.322-28.134-7.091-110.083,24-144
	c33-36,47.603,9.485-12,18c-14,2-38-74,7-195c70.13-188.571-71-309-19-369c19.626-22.645,46.109-16.351,33,24"/>
</svg>
